# xmcd
#
# Track frame offsets:
#       150
#       10485
#       24885
#       32940
#       43945
#       62085
#       67435
#       79350
#       91190
#       102808
#       110855
#       122255
#       132475
#       141943
#       151093
#       160815
#
# Disc length: 2217 seconds
#
# Revision: 1
# Processed by: cddbd v1.5.2PL0 Copyright (c) Steve Scherf et al.
# Submitted via: FreeDbEdit v0.1
#
DISCID=dd08a710
DTITLE=The Stanley Brothers - Long Journey Home
DYEAR=1961
DGENRE=Bluegrass
TTITLE0=Long Journey Home
TTITLE1=Will You Miss Me
TTITLE2=I'll Be True to the One That I Love
TTITLE3=No Letter in the Mail Today
TTITLE4=Pretty Polly
TTITLE5=Wildwood Flower
TTITLE6=Two More Years and I'll Be Free
TTITLE7=Ramsachkle Shack on the Hill
TTITLE8=East Virginia Blues
TTITLE9=Pig in a Pen
TTITLE10=Your Saddle Is Empty Old Pal
TTITLE11=Nine Pound Hammer
TTITLE12=Cluck Old Hen
TTITLE13=Wild and Reckless Hobo
TTITLE14=Rabbit in a Log
TTITLE15=Mountain Pickin'
EXTD=
EXTT0=
EXTT1=
EXTT2=
EXTT3=
EXTT4=
EXTT5=
EXTT6=
EXTT7=
EXTT8=
EXTT9=
EXTT10=
EXTT11=
EXTT12=
EXTT13=
EXTT14=
EXTT15=
PLAYORDER=
